<svg xmlns="http://www.w3.org/2000/svg" width="512" height="512" style="" viewBox="0 0 512 512" xmlns:xlink="http://www.w3.org/1999/xlink">
  <defs transform="matrix(0.9371999116559672, 0, 0, 0.9371999116559672, 16.07750972000454, 46.18248336054694)">
    <path id="b" data-type="circle" data-cx="44.9" data-cy="54" data-r="38.4" d="M44.9,54m-38.4,0a38.4,38.4 0 1, 0 76.8,0a38.4,38.4 0 1, 0 -76.8,0" />
    <clipPath id="a" transform="matrix(1, 0, 0, 1, 0, 0)" fill="rgba(13, 15, 69,1)">
      <use href="#b" overflow="visible" fill="rgba(13, 15, 69,1)" />
    </clipPath>
  </defs>
  <g transform="matrix(0.999999001185568, 0, 0, 0.999999001185568, 0.00017440482804470387, 0.00018226110237788465)">
    <path clip-path="url(#a)" d="M78.4,92.5c0.9-0.4,1.7-0.9,2.4-1.6c0.6-0.6,1-1.2,1.4-1.9c2.4,0.6,5.1-0.1,7-2   c1-1,1.6-2.1,1.9-3.3c0.9-0.4,1.7-0.9,2.4-1.6c0.9-0.9,1.4-1.9,1.8-2.9c2.1,0.1,4.2-0.6,5.7-2.1c1.8-1.8,2.4-4.2,2.1-6.5   c0.2-0.2,0.5-0.4,0.7-0.6c1.4-1.4,2.1-3.2,2.2-5c1.6-2.8,1.1-6.4-1.2-8.8c-2.9-2.9-7.6-2.9-10.5,0c-1.4,1.4-2.1,3.2-2.2,5   c-0.8,1.5-1.1,3.2-0.8,4.8c-0.2,0.2-0.5,0.4-0.7,0.6c-0.9,0.9-1.4,1.9-1.8,2.9c-2.1-0.1-4.2,0.6-5.7,2.1c-1,1-1.6,2.1-1.9,3.3   c-0.9,0.4-1.7,0.9-2.4,1.6c-0.4,0.4-0.7,0.8-1,1.2c-1.7-0.6-3.6-0.6-5.3,0.1c-0.4-0.9-1-1.8-1.7-2.6c-3-3-8-3.1-11.1-0.1   c-0.2-1.7-1-3.4-2.3-4.7c-1.1-1.1-2.5-1.8-4-2.1c0.1-1.8-0.4-3.6-1.5-5.1c0.2-1.8-0.2-3.7-1.2-5.3c0.3-0.1,0.5-0.2,0.7-0.4   c0.4-0.4,0.5-0.9,0.4-1.4c0.4,0,0.7-0.2,1-0.4c0.4-0.4,0.5-1,0.4-1.6c0.4,0,0.9-0.1,1.2-0.4c0.3-0.3,0.5-0.8,0.4-1.2   c0.2-0.1,0.5-0.2,0.6-0.4c0.3-0.3,0.4-0.7,0.4-1c0.1,0,0.2-0.1,0.3-0.2c0.1-0.1,0.2-0.3,0.3-0.5c0.3,0,0.6-0.1,0.8-0.3   c0.2-0.2,0.3-0.6,0.3-0.9c0,0,0,0,0.1,0c0.4-0.4,0.4-1,0-1.4c-0.4-0.4-1-0.4-1.4,0c-0.2,0.2-0.3,0.4-0.3,0.6   c-0.3,0-0.6,0.1-0.8,0.3c-0.2,0.2-0.3,0.5-0.3,0.8c0,0,0,0.1-0.1,0.1c-0.5-0.1-1,0.1-1.4,0.4c-0.3,0.3-0.5,0.8-0.4,1.2   c0,0-0.1,0-0.1,0.1c-0.4-0.1-0.9,0.1-1.3,0.4c-0.3,0.3-0.5,0.7-0.4,1.2c-0.5-0.2-1.2-0.1-1.6,0.4c-0.2,0.2-0.4,0.5-0.4,0.8   c-0.6-0.2-1.2-0.1-1.7,0.3c-0.2,0.2-0.3,0.4-0.4,0.6c-0.7-0.3-1.4-0.4-2.1-0.5c-0.1-0.3-0.2-0.5-0.4-0.7c0,0-0.1-0.1-0.2-0.1   c0.1-0.1,0.3-0.2,0.4-0.3c0.6-0.6,0.6-1.6,0-2.2c0,0-0.1-0.1-0.1-0.1c0,0,0.1-0.1,0.1-0.1c0.4-0.4,0.5-0.9,0.4-1.4   c0.4,0,0.8-0.1,1.1-0.4c0.3-0.3,0.5-0.8,0.4-1.2c0.3-0.1,0.5-0.2,0.7-0.4c0.4-0.4,0.5-1,0.4-1.6c0.4,0,0.7-0.2,1-0.4   c0.4-0.4,0.5-1.1,0.4-1.6c0.1,0,0.1,0,0.2-0.1c0.4,0.2,0.8,0.1,1.1-0.2c0.2-0.2,0.3-0.6,0.3-0.9c0,0,0,0,0.1,0c0.4-0.4,0.4-1,0-1.4   c-0.4-0.4-1-0.4-1.4,0c-0.2,0.2-0.3,0.4-0.3,0.6c-0.3,0-0.6,0.1-0.8,0.3c-0.2,0.2-0.3,0.5-0.3,0.7c-0.5-0.1-0.9,0.1-1.3,0.4   c-0.3,0.3-0.4,0.6-0.4,0.9c-0.5-0.2-1.1-0.1-1.6,0.4c-0.4,0.4-0.5,0.8-0.4,1.3c-0.5-0.1-0.9,0.1-1.3,0.4c-0.1,0.1-0.2,0.3-0.3,0.4   c-0.5-0.2-1.2-0.1-1.6,0.3c-0.1,0.1-0.3,0.3-0.3,0.5c-0.1-0.1-0.1-0.2-0.2-0.3c-0.6-0.6-1.6-0.6-2.2,0c-0.1,0.1-0.1,0.1-0.1,0.2   c-0.9-0.2-1.9-0.2-2.8,0c0-0.4-0.2-0.8-0.5-1.1c-0.2-0.2-0.5-0.4-0.9-0.4c-0.3-0.5-0.7-0.9-1.1-1.3c-1.1-1.1-2.5-1.8-3.9-2.1   c0-0.1,0-0.2-0.1-0.3c0.7-2.6,0-5.5-2.1-7.6c-1.8-1.8-4.2-2.5-6.5-2.3c1-1.9,1.2-4.2,0.5-6.2c1.4-1.6,2-3.7,1.9-5.8   c1.6-0.2,3.1-0.9,4.4-2.1c0.8-0.8,1.3-1.7,1.7-2.6c2.4,0.6,5-0.1,6.9-2c2.1-2.1,2.7-5.2,1.7-7.8c1.9,0,3.8-0.7,5.2-2.2   c2.9-2.9,2.9-7.6,0-10.5c-2.9-2.9-7.6-2.9-10.5,0c-0.9,0.9-1.6,2-1.9,3.2c-2.4-0.5-4.9,0.2-6.7,2c-2,2-2.6,4.7-1.9,7.2   c-1.8,0-3.6,0.8-5,2.2c-1.5,1.5-2.2,3.4-2.2,5.3c-1.9,0.1-3.8,0.9-5.2,2.3c-2.2,2.2-2.8,5.4-1.9,8.2c-2.3,2.6-2.5,6.4-0.8,9.3   c-0.5,0.2-0.9,0.5-1.3,0.9c-1.1,1.1-1.6,2.5-1.6,4.2c-3.5,0.1-6.5,1.1-8.5,3.1c-7.9,7.9-0.5,28,16.5,44.9   c17,17,37.1,24.3,44.9,16.5c0.7-0.7,1.2-1.4,1.7-2.3c2.9,0.9,5.5,0.6,7.2-1c4.4,3,9.3,3.6,11.8,1.1C79,98.3,79.3,95.5,78.4,92.5z" transform="matrix(2.7960410118103027, 0, 0, 2.7960410118103027, 117.64301300048828, 96.7061538696289)" fill="#1761b0" />
    <path d="M86.8,12.1l0-0.1l-0.2-0.2l-0.1,0c-0.1,0-1.7-0.4-3.9-0.4c-2.6,0-6.2,0.5-8.5,2.8l-8.7,8.7  c-0.7,0.3-2,0.6-4.8,0.6c-5.2,0-7,1.9-9.4,4.3l-0.5,0.5c-0.2,0.2-1,1,3.1,6.2L49.2,39c-0.2,0.2-0.4,0.6-0.4,0.9  c0,0.3,0.1,0.7,0.4,0.9l1.9,1.9c0.5,0.5,1.3,0.5,1.8,0l4.2-4.2c0.5,0.6,0.9,1,1.3,1.4c0.4,0.4,0.9,0.8,1.4,1.3l-4.2,4.2  c-0.5,0.5-0.5,1.3,0,1.8l1.9,1.9c0.2,0.2,0.6,0.4,0.9,0.4s0.7-0.1,0.9-0.4l4.6-4.6c1.2,0.9,4.4,3.3,5.6,3.3c0.3,0,0.5-0.1,0.6-0.2  l0.5-0.5c2.4-2.3,4.2-4.2,4.3-9.4c0-2.7,0.3-4,0.5-4.6l8.8-8.8C88.5,20.4,86.9,12.5,86.8,12.1z M71.3,26.2l-2.2-0.7l8.9-5.3  l-3.8,4.7l-0.5,0.6l0.8,0.2l2.2,0.5l-9.3,5.3l4.1-4.5l0.5-0.6L71.3,26.2z M57.6,37.5l-0.4-0.4l-5,5c-0.1,0.1-0.3,0.1-0.4,0l-1.9-1.9  c-0.1-0.1-0.1-0.3,0-0.4l5.2-5.2l-0.2-0.3l-0.1-0.1c-1.6-2-3.3-4.6-3.3-5.2l0.4-0.4c2.3-2.3,3.9-3.9,8.7-4c2.4,0,4.2-0.3,5.2-0.8  l8.9-8.8c2.1-2.1,5.4-2.5,7.8-2.5c1.5,0,2.7,0.2,3.3,0.3L80,18.5l-12.1,7.2l3.2,1l-6.2,6.9l0.2-0.3l-6,6  C58.7,38.8,58.2,38.2,57.6,37.5z" transform="matrix(2.7960410118103027, 0, 0, 2.7960410118103027, 117.64301300048828, 96.7061538696289)" fill="#1761b0" />
    <path transform="matrix(2.7960410118103027, 0, 0, 2.7960410118103027, 117.64301300048828, 96.7061538696289)" data-type="circle" data-cx="52.5" data-cy="16.2" data-r="0.6" d="M52.5,16.2m-0.6,0a0.6,0.6 0 1, 0 1.2,0a0.6,0.6 0 1, 0 -1.2,0" fill="#1761b0" />
    <path transform="matrix(2.7960410118103027, 0, 0, 2.7960410118103027, 117.64301300048828, 96.7061538696289)" data-type="circle" data-cx="83.4" data-cy="29.8" data-r="0.6" d="M83.4,29.8m-0.6,0a0.6,0.6 0 1, 0 1.2,0a0.6,0.6 0 1, 0 -1.2,0" fill="#1761b0" />
    <path transform="matrix(2.7960410118103027, 0, 0, 2.7960410118103027, 117.64301300048828, 96.7061538696289)" data-type="circle" data-cx="56.8" data-cy="15.2" data-r="0.5" d="M56.8,15.2m-0.5,0a0.5,0.5 0 1, 0 1,0a0.5,0.5 0 1, 0 -1,0" fill="#1761b0" />
    <path transform="matrix(2.7960410118103027, 0, 0, 2.7960410118103027, 117.64301300048828, 96.7061538696289)" data-type="circle" data-cx="29.7" data-cy="34.9" data-r="0.5" d="M29.7,34.9m-0.5,0a0.5,0.5 0 1, 0 1,0a0.5,0.5 0 1, 0 -1,0" fill="#1761b0" />
    <path transform="matrix(2.7960410118103027, 0, 0, 2.7960410118103027, 117.64301300048828, 96.7061538696289)" data-type="circle" data-cx="20.6" data-cy="69.5" data-r="0.5" d="M20.6,69.5m-0.5,0a0.5,0.5 0 1, 0 1,0a0.5,0.5 0 1, 0 -1,0" fill="#e6e0bb" />
    <path transform="matrix(2.7960410118103027, 0, 0, 2.7960410118103027, 117.64301300048828, 96.7061538696289)" data-type="circle" data-cx="39.1" data-cy="40.3" data-r="1.1" d="M39.1,40.3m-1.1,0a1.1,1.1 0 1, 0 2.2,0a1.1,1.1 0 1, 0 -2.2,0" fill="#1761b0" />
    <path transform="matrix(2.7960410118103027, 0, 0, 2.7960410118103027, 117.64301300048828, 96.7061538696289)" data-type="circle" data-cx="21.7" data-cy="57.6" data-r="1.1" d="M21.7,57.6m-1.1,0a1.1,1.1 0 1, 0 2.2,0a1.1,1.1 0 1, 0 -2.2,0" fill="#e6e0bb" />
    <path transform="matrix(2.7960410118103027, 0, 0, 2.7960410118103027, 117.64301300048828, 96.7061538696289)" data-type="circle" data-cx="46" data-cy="61.7" data-r="0.6" d="M46,61.7m-0.6,0a0.6,0.6 0 1, 0 1.2,0a0.6,0.6 0 1, 0 -1.2,0" fill="#e6e0bb" />
    <path transform="matrix(2.7960410118103027, 0, 0, 2.7960410118103027, 117.64301300048828, 96.7061538696289)" data-type="circle" data-cx="57.8" data-cy="59.9" data-r="0.4" d="M57.8,59.9m-0.4,0a0.4,0.4 0 1, 0 0.8,0a0.4,0.4 0 1, 0 -0.8,0" fill="#1761b0" />
    <path transform="matrix(2.7960410118103027, 0, 0, 2.7960410118103027, 117.64301300048828, 96.7061538696289)" data-type="circle" data-cx="66.7" data-cy="58" data-r="0.9" d="M66.7,58m-0.9,0a0.9,0.9 0 1, 0 1.8,0a0.9,0.9 0 1, 0 -1.8,0" fill="#1761b0" />
    <path transform="matrix(2.7960410118103027, 0, 0, 2.7960410118103027, 117.64301300048828, 96.7061538696289)" data-type="circle" data-cx="93" data-cy="44" data-r="0.6" d="M93,44m-0.6,0a0.6,0.6 0 1, 0 1.2,0a0.6,0.6 0 1, 0 -1.2,0" fill="#1761b0" />
    <path transform="matrix(2.7960410118103027, 0, 0, 2.7960410118103027, 117.64301300048828, 96.7061538696289)" data-type="circle" data-cx="81.6" data-cy="46.1" data-r="0.8" d="M81.6,46.1m-0.8,0a0.8,0.8 0 1, 0 1.6,0a0.8,0.8 0 1, 0 -1.6,0" fill="#1761b0" />
    <path transform="matrix(2.7960410118103027, 0, 0, 2.7960410118103027, 117.64301300048828, 96.7061538696289)" data-type="circle" data-cx="18.9" data-cy="43.2" data-r="0.8" d="M18.9,43.2m-0.8,0a0.8,0.8 0 1, 0 1.6,0a0.8,0.8 0 1, 0 -1.6,0" fill="#e6e0bb" />
    <path transform="matrix(2.7960410118103027, 0, 0, 2.7960410118103027, 117.64301300048828, 96.7061538696289)" data-type="circle" data-cx="58.5" data-cy="79.4" data-r="0.4" d="M58.5,79.4m-0.4,0a0.4,0.4 0 1, 0 0.8,0a0.4,0.4 0 1, 0 -0.8,0" fill="#e6e0bb" />
    <path transform="matrix(2.7960410118103027, 0, 0, 2.7960410118103027, 117.64301300048828, 96.7061538696289)" data-type="circle" data-cx="95.5" data-cy="42" data-r="0.4" d="M95.5,42m-0.4,0a0.4,0.4 0 1, 0 0.8,0a0.4,0.4 0 1, 0 -0.8,0" fill="#1761b0" />
    <path transform="matrix(2.7960410118103027, 0, 0, 2.7960410118103027, 117.64301300048828, 96.7061538696289)" data-type="circle" data-cx="95.7" data-cy="45.7" data-r="0.4" d="M95.7,45.7m-0.4,0a0.4,0.4 0 1, 0 0.8,0a0.4,0.4 0 1, 0 -0.8,0" fill="#1761b0" />
    <path transform="matrix(2.7960410118103027, 0, 0, 2.7960410118103027, 117.64301300048828, 96.7061538696289)" data-type="circle" data-cx="67.4" data-cy="8.2" data-r="0.5" d="M67.4,8.2m-0.5,0a0.5,0.5 0 1, 0 1,0a0.5,0.5 0 1, 0 -1,0" fill="#1761b0" />
    <path transform="matrix(2.7960410118103027, 0, 0, 2.7960410118103027, 117.64301300048828, 96.7061538696289)" data-type="polygon" d="M28.9 64.4L33.6 64.8L28.9 65.2L28.5 69.9L28.1 65.2L23.4 64.8L28.1 64.4L28.5 59.7Z" fill="#e6e0bb" />
    <path transform="matrix(2.7960410118103027, 0, 0, 2.7960410118103027, 117.64301300048828, 96.7061538696289)" data-type="polygon" d="M49.3 74.6L52.1 74.8L49.3 75.1L49.1 77.9L48.8 75.1L46 74.8L48.8 74.6L49.1 71.8Z" fill="#e6e0bb" />
    <path transform="matrix(2.7960410118103027, 0, 0, 2.7960410118103027, 117.64301300048828, 96.7061538696289)" data-type="polygon" d="M80.7 62L83.2 62.2L80.7 62.5L80.5 64.9L80.3 62.5L77.9 62.2L80.3 62L80.5 59.6Z" fill="#e6e0bb" />
    <path transform="matrix(2.7960410118103027, 0, 0, 2.7960410118103027, 117.64301300048828, 96.7061538696289)" data-type="polygon" d="M39.9 21.9L47.1 22.5L39.9 23.1L39.2 30.4L38.6 23.1L31.3 22.5L38.6 21.9L39.2 14.6Z" fill="#e6e0bb" />
  </g>
  <path text="Studio42" fill="#d2292d" space="preserve" text-anchor="middle" offset="0.5" font-scale="contain" font-size="48" font-family="Orbitron" transform="matrix(0.9239557609741321, 0, 0, 0.9239557609741321, 255.8881993227459, 407.9955024082918)" data-fl-textpath="" font-weight="400" font-style="normal" d="M-84.52600000000004-28.8L-84.52600000000004-28.8L-84.52600000000004-27.46L-88.41600000000003-27.46L-88.41600000000003-28.8Q-88.41600000000003-29.57 -88.96600000000004-30.12Q-89.51600000000002-30.67 -90.28600000000003-30.67L-90.28600000000003-30.67L-113.32600000000002-30.67Q-114.09600000000003-30.67 -114.64600000000003-30.12Q-115.19600000000003-29.57 -115.19600000000003-28.8L-115.19600000000003-28.8L-115.19600000000003-21.07Q-115.19600000000003-20.3 -114.64600000000003-19.78Q-114.09600000000003-19.25 -113.32600000000002-19.25L-113.32600000000002-19.25L-90.28600000000003-19.25Q-87.88600000000002-19.25 -86.20600000000003-17.57Q-84.52600000000004-15.89 -84.52600000000004-13.49L-84.52600000000004-13.49L-84.52600000000004-5.76Q-84.52600000000004-3.36 -86.20600000000003-1.68Q-87.88600000000002 0 -90.28600000000003 0L-90.28600000000003 0L-113.32600000000002 0Q-115.72600000000003 0 -117.40600000000003-1.68Q-119.08600000000003-3.36 -119.08600000000003-5.76L-119.08600000000003-5.76L-119.08600000000003-7.1L-115.19600000000003-7.1L-115.19600000000003-5.76Q-115.19600000000003-4.99 -114.64600000000003-4.44Q-114.09600000000003-3.89 -113.32600000000002-3.89L-113.32600000000002-3.89L-90.28600000000003-3.89Q-89.51600000000002-3.89 -88.96600000000004-4.44Q-88.41600000000003-4.99 -88.41600000000003-5.76L-88.41600000000003-5.76L-88.41600000000003-13.49Q-88.41600000000003-14.26 -88.96600000000004-14.78Q-89.51600000000002-15.31 -90.28600000000003-15.31L-90.28600000000003-15.31L-113.32600000000002-15.31Q-115.72600000000003-15.31 -117.40600000000003-16.99Q-119.08600000000003-18.67 -119.08600000000003-21.07L-119.08600000000003-21.07L-119.08600000000003-28.8Q-119.08600000000003-31.2 -117.40600000000003-32.88Q-115.72600000000003-34.56 -113.32600000000002-34.56L-113.32600000000002-34.56L-90.28600000000003-34.56Q-87.88600000000002-34.56 -86.20600000000003-32.88Q-84.52600000000004-31.2 -84.52600000000004-28.8ZM-63.55000000000001-27.84L-63.55000000000001-23.9L-75.60000000000001-23.9L-75.60000000000001-5.81Q-75.60000000000001-5.04 -75.05000000000001-4.49Q-74.50000000000001-3.94 -73.73000000000002-3.94L-73.73000000000002-3.94L-63.55000000000001-3.94L-63.55000000000001 0L-73.73000000000002 0Q-76.18 0 -77.86000000000001-1.7Q-79.54-3.41 -79.54-5.81L-79.54-5.81L-79.54-36.96L-75.60000000000001-36.96L-75.60000000000001-27.84L-63.55000000000001-27.84ZM-35.420000000000016-5.81L-35.420000000000016-27.84L-31.49000000000002-27.84L-31.49000000000002-5.81Q-31.49000000000002-3.41 -33.19000000000002-1.7Q-34.90000000000002 0 -37.34000000000002 0L-37.34000000000002 0L-54.05000000000002 0Q-56.45000000000002 0 -58.15000000000002-1.7Q-59.86000000000002-3.41 -59.86000000000002-5.81L-59.86000000000002-5.81L-59.86000000000002-27.84L-55.920000000000016-27.84L-55.920000000000016-5.81Q-55.920000000000016-5.04 -55.37000000000002-4.49Q-54.82000000000002-3.94 -54.05000000000002-3.94L-54.05000000000002-3.94L-37.34000000000002-3.94Q-36.58000000000002-3.94 -36.00000000000002-4.49Q-35.420000000000016-5.04 -35.420000000000016-5.81L-35.420000000000016-5.81ZM-3.0200000000000173-27.84L-3.0200000000000173-36.96L 0.9099999999999824-36.96L 0.9099999999999824 0L-21.600000000000016 0Q-24.05000000000002 0 -25.750000000000018-1.7Q-27.460000000000015-3.41 -27.460000000000015-5.81L-27.460000000000015-5.81L-27.460000000000015-22.03Q-27.460000000000015-24.43 -25.750000000000018-26.14Q-24.05000000000002-27.84 -21.600000000000016-27.84L-21.600000000000016-27.84L-3.0200000000000173-27.84ZM-21.600000000000016-3.94L-21.600000000000016-3.94L-4.900000000000016-3.94Q-4.130000000000017-3.94 -3.580000000000016-4.49Q-3.0200000000000173-5.04 -3.0200000000000173-5.81L-3.0200000000000173-5.81L-3.0200000000000173-22.03Q-3.0200000000000173-22.8 -3.580000000000016-23.35Q-4.130000000000017-23.9 -4.900000000000016-23.9L-4.900000000000016-23.9L-21.600000000000016-23.9Q-22.370000000000015-23.9 -22.920000000000016-23.35Q-23.470000000000017-22.8 -23.470000000000017-22.03L-23.470000000000017-22.03L-23.470000000000017-5.81Q-23.470000000000017-5.04 -22.920000000000016-4.49Q-22.370000000000015-3.94 -21.600000000000016-3.94ZM 9.885999999999981 0L 5.955999999999983 0L 5.955999999999983-27.84L 9.885999999999981-27.84L 9.885999999999981 0ZM 5.955999999999983-33.02L 5.955999999999983-36.96L 9.885999999999981-36.96L 9.885999999999981-33.02L 5.955999999999983-33.02ZM 21.69999999999998-27.84L 21.69999999999998-27.84L 38.39999999999998-27.84Q 40.84999999999998-27.84  42.54999999999998-26.14Q 44.25999999999998-24.43  44.25999999999998-22.03L 44.25999999999998-22.03L 44.25999999999998-5.81Q 44.25999999999998-3.41  42.54999999999998-1.7Q 40.84999999999998 0  38.39999999999998 0L 38.39999999999998 0L 21.69999999999998 0Q 19.29999999999998 0  17.589999999999982-1.7Q 15.88999999999998-3.41  15.88999999999998-5.81L 15.88999999999998-5.81L 15.88999999999998-22.03Q 15.88999999999998-24.43  17.589999999999982-26.14Q 19.29999999999998-27.84  21.69999999999998-27.84ZM 38.39999999999998-23.9L 38.39999999999998-23.9L 21.69999999999998-23.9Q 20.92999999999998-23.9  20.37999999999998-23.35Q 19.81999999999998-22.8  19.81999999999998-22.03L 19.81999999999998-22.03L 19.81999999999998-5.81Q 19.81999999999998-5.04  20.37999999999998-4.49Q 20.92999999999998-3.94  21.69999999999998-3.94L 21.69999999999998-3.94L 38.39999999999998-3.94Q 39.16999999999998-3.94  39.719999999999985-4.49Q 40.26999999999998-5.04  40.26999999999998-5.81L 40.26999999999998-5.81L 40.26999999999998-22.03Q 40.26999999999998-22.8  39.719999999999985-23.35Q 39.16999999999998-23.9  38.39999999999998-23.9ZM 74.976-34.61L 74.976-12.86L 80.356-12.86L 80.356-8.93L 74.976-8.93L 74.976 0L 71.03599999999999 0L 71.03599999999999-8.93L 46.94599999999999-8.93L 46.94599999999999-13.34L 70.55599999999998-34.61L 74.976-34.61ZM 71.03599999999999-12.86L 71.03599999999999-28.32L 51.98599999999999-12.86L 71.03599999999999-12.86ZM 90.23599999999999-34.61L 90.23599999999999-34.61L 113.51599999999999-34.61Q 115.91599999999998-34.61  117.62599999999998-32.9Q 119.326-31.2  119.326-28.75L 119.326-28.75L 119.326-20.64Q 119.326-18.24  117.62599999999998-16.54Q 115.91599999999998-14.83  113.51599999999999-14.83L 113.51599999999999-14.83L 90.23599999999999-14.83Q 89.47599999999998-14.83  88.91599999999998-14.28Q 88.36599999999999-13.73  88.36599999999999-12.96L 88.36599999999999-12.96L 88.36599999999999-5.81Q 88.36599999999999-5.04  88.91599999999998-4.49Q 89.47599999999998-3.94  90.23599999999999-3.94L 90.23599999999999-3.94L 119.326-3.94L 119.326 0L 84.43599999999998 0L 84.43599999999998-12.96Q 84.43599999999998-15.41  86.11599999999999-17.09Q 87.79599999999998-18.77  90.23599999999999-18.77L 90.23599999999999-18.77L 113.51599999999999-18.77Q 114.28599999999999-18.77  114.83599999999998-19.32Q 115.39599999999999-19.87  115.39599999999999-20.64L 115.39599999999999-20.64L 115.39599999999999-28.75Q 115.39599999999999-29.52  114.83599999999998-30.07Q 114.28599999999999-30.62  113.51599999999999-30.62L 113.51599999999999-30.62L 90.23599999999999-30.62Q 89.47599999999998-30.62  88.91599999999998-30.07Q 88.36599999999999-29.52  88.36599999999999-28.75L 88.36599999999999-28.75L 88.36599999999999-27.41L 84.43599999999998-27.41L 84.43599999999998-28.75Q 84.43599999999998-31.2  86.11599999999999-32.9Q 87.79599999999998-34.61  90.23599999999999-34.61Z" />
  <path text="Web Development" fill="#d2292d" space="preserve" text-anchor="middle" offset="0.5" font-scale="contain" font-size="48" font-family="Orbitron" transform="matrix(0.3978943706017369, 0, 0, 0.3978943706017369, 256.3239139987867, 440.3881992106357)" font-weight="400" font-style="normal" data-fl-textpath="" letter-spacing="9" d="M-265.438-6.82L-255.40800000000002-34.56L-251.18800000000002-34.56L-263.75800000000004 0L-267.168 0L-277.918-29.52L-288.668 0L-292.028 0L-304.608-34.56L-300.478-34.56L-290.348-6.82L-280.26800000000003-34.56L-275.568-34.56L-265.438-6.82ZM-234.116-27.84L-217.416-27.84Q-214.966-27.84 -213.26600000000002-26.14Q-211.556-24.43 -211.556-22.03L-211.556-22.03L-211.556-11.95L-235.996-11.95L-235.996-5.81Q-235.996-5.04 -235.436-4.49Q-234.886-3.94 -234.116-3.94L-234.116-3.94L-211.556-3.94L-211.556 0L-234.116 0Q-236.516 0 -238.226-1.7Q-239.92600000000002-3.41 -239.92600000000002-5.81L-239.92600000000002-5.81L-239.92600000000002-22.03Q-239.92600000000002-24.43 -238.226-26.14Q-236.516-27.84 -234.116-27.84L-234.116-27.84ZM-235.996-22.03L-235.996-15.89L-215.546-15.89L-215.546-22.03Q-215.546-22.8 -216.096-23.35Q-216.64600000000002-23.9 -217.416-23.9L-217.416-23.9L-234.116-23.9Q-234.886-23.9 -235.436-23.35Q-235.996-22.8 -235.996-22.03L-235.996-22.03ZM-193.63-27.84L-175.01-27.84Q-172.60999999999999-27.84 -170.9-26.14Q-169.2-24.43 -169.2-22.03L-169.2-22.03L-169.2-5.81Q-169.2-3.41 -170.9-1.7Q-172.60999999999999 0 -175.01 0L-175.01 0L-197.57 0L-197.57-36.96L-193.63-36.96L-193.63-27.84ZM-173.14-5.81L-173.14-5.81L-173.14-22.03Q-173.14-22.8 -173.69-23.35Q-174.24-23.9 -175.01-23.9L-175.01-23.9L-191.71-23.9Q-192.48-23.9 -193.06-23.35Q-193.63-22.8 -193.63-22.03L-193.63-22.03L-193.63-5.81Q-193.63-5.04 -193.06-4.49Q-192.48-3.94 -191.71-3.94L-191.71-3.94L-175.01-3.94Q-174.24-3.94 -173.69-4.49Q-173.14-5.04 -173.14-5.81ZM-134.308 0L-134.308-34.56L-105.508-34.56Q-103.108-34.56 -101.428-32.88Q-99.74799999999999-31.2 -99.74799999999999-28.8L-99.74799999999999-28.8L-99.74799999999999-5.76Q-99.74799999999999-3.36 -101.428-1.68Q-103.108 0 -105.508 0L-105.508 0L-134.308 0ZM-103.62799999999999-5.76L-103.62799999999999-5.76L-103.62799999999999-28.8Q-103.62799999999999-29.57 -104.18799999999999-30.12Q-104.738-30.67 -105.508-30.67L-105.508-30.67L-128.548-30.67Q-129.308-30.67 -129.868-30.12Q-130.418-29.57 -130.418-28.8L-130.418-28.8L-130.418-5.76Q-130.418-4.99 -129.868-4.44Q-129.308-3.89 -128.548-3.89L-128.548-3.89L-105.508-3.89Q-104.738-3.89 -104.18799999999999-4.44Q-103.62799999999999-4.99 -103.62799999999999-5.76ZM-79.79599999999998-27.84L-63.09599999999998-27.84Q-60.64599999999999-27.84 -58.945999999999984-26.14Q-57.23599999999998-24.43 -57.23599999999998-22.03L-57.23599999999998-22.03L-57.23599999999998-11.95L-81.67599999999999-11.95L-81.67599999999999-5.81Q-81.67599999999999-5.04 -81.11599999999999-4.49Q-80.56599999999999-3.94 -79.79599999999998-3.94L-79.79599999999998-3.94L-57.23599999999998-3.94L-57.23599999999998 0L-79.79599999999998 0Q-82.19599999999998 0 -83.90599999999998-1.7Q-85.60599999999998-3.41 -85.60599999999998-5.81L-85.60599999999998-5.81L-85.60599999999998-22.03Q-85.60599999999998-24.43 -83.90599999999998-26.14Q-82.19599999999998-27.84 -79.79599999999998-27.84L-79.79599999999998-27.84ZM-81.67599999999999-22.03L-81.67599999999999-15.89L-61.225999999999985-15.89L-61.225999999999985-22.03Q-61.225999999999985-22.8 -61.77599999999998-23.35Q-62.32599999999998-23.9 -63.09599999999998-23.9L-63.09599999999998-23.9L-79.79599999999998-23.9Q-80.56599999999999-23.9 -81.11599999999999-23.35Q-81.67599999999999-22.8 -81.67599999999999-22.03L-81.67599999999999-22.03ZM-28.12999999999998-3.84L-15.069999999999983-27.84L-10.45999999999998-27.84L-25.869999999999983 0L-30.429999999999982 0L-45.789999999999985-27.84L-41.179999999999986-27.84L-28.12999999999998-3.84ZM 6.940000000000021-27.84L 23.640000000000022-27.84Q 26.09000000000002-27.84  27.79000000000002-26.14Q 29.50000000000002-24.43  29.50000000000002-22.03L 29.50000000000002-22.03L 29.50000000000002-11.95L 5.060000000000021-11.95L 5.060000000000021-5.81Q 5.060000000000021-5.04  5.620000000000021-4.49Q 6.170000000000021-3.94  6.940000000000021-3.94L 6.940000000000021-3.94L 29.50000000000002-3.94L 29.50000000000002 0L 6.940000000000021 0Q 4.540000000000021 0  2.8300000000000214-1.7Q 1.1300000000000212-3.41  1.1300000000000212-5.81L 1.1300000000000212-5.81L 1.1300000000000212-22.03Q 1.1300000000000212-24.43  2.8300000000000214-26.14Q 4.540000000000021-27.84  6.940000000000021-27.84L 6.940000000000021-27.84ZM 5.060000000000021-22.03L 5.060000000000021-15.89L 25.51000000000002-15.89L 25.51000000000002-22.03Q 25.51000000000002-22.8  24.960000000000022-23.35Q 24.41000000000002-23.9  23.640000000000022-23.9L 23.640000000000022-23.9L 6.940000000000021-23.9Q 6.170000000000021-23.9  5.620000000000021-23.35Q 5.060000000000021-22.8  5.060000000000021-22.03L 5.060000000000021-22.03ZM 42.43600000000002-5.81L 42.43600000000002-36.96L 46.36600000000002-36.96L 46.36600000000002-5.81Q 46.36600000000002-5.04  46.916000000000025-4.49Q 47.47600000000002-3.94  48.23600000000002-3.94L 48.23600000000002-3.94L 52.94600000000002-3.94L 52.94600000000002 0L 48.23600000000002 0Q 45.83600000000002 0  44.136000000000024-1.7Q 42.43600000000002-3.41  42.43600000000002-5.81L 42.43600000000002-5.81ZM 71.21200000000002-27.84L 71.21200000000002-27.84L 87.912-27.84Q 90.36200000000001-27.84  92.06200000000001-26.14Q 93.77200000000002-24.43  93.77200000000002-22.03L 93.77200000000002-22.03L 93.77200000000002-5.81Q 93.77200000000002-3.41  92.06200000000001-1.7Q 90.36200000000001 0  87.912 0L 87.912 0L 71.21200000000002 0Q 68.81200000000001 0  67.10200000000002-1.7Q 65.40200000000002-3.41  65.40200000000002-5.81L 65.40200000000002-5.81L 65.40200000000002-22.03Q 65.40200000000002-24.43  67.10200000000002-26.14Q 68.81200000000001-27.84  71.21200000000002-27.84ZM 87.912-23.9L 87.912-23.9L 71.21200000000002-23.9Q 70.44200000000001-23.9  69.89200000000001-23.35Q 69.33200000000001-22.8  69.33200000000001-22.03L 69.33200000000001-22.03L 69.33200000000001-5.81Q 69.33200000000001-5.04  69.89200000000001-4.49Q 70.44200000000001-3.94  71.21200000000002-3.94L 71.21200000000002-3.94L 87.912-3.94Q 88.68200000000002-3.94  89.23200000000001-4.49Q 89.78200000000001-5.04  89.78200000000001-5.81L 89.78200000000001-5.81L 89.78200000000001-22.03Q 89.78200000000001-22.8  89.23200000000001-23.35Q 88.68200000000002-23.9  87.912-23.9ZM 107.75800000000001-27.84L 130.318-27.84Q 132.71800000000002-27.84  134.428-26.14Q 136.12800000000001-24.43  136.12800000000001-22.03L 136.12800000000001-22.03L 136.12800000000001-5.81Q 136.12800000000001-3.41  134.428-1.7Q 132.71800000000002 0  130.318 0L 130.318 0L 111.69800000000001 0L 111.69800000000001 11.04L 107.75800000000001 11.04L 107.75800000000001-27.84ZM 132.18800000000002-5.81L 132.18800000000002-5.81L 132.18800000000002-22.03Q 132.18800000000002-22.8  131.638-23.35Q 131.08800000000002-23.9  130.318-23.9L 130.318-23.9L 113.61800000000001-23.9Q 112.84800000000001-23.9  112.268-23.35Q 111.69800000000001-22.8  111.69800000000001-22.03L 111.69800000000001-22.03L 111.69800000000001-5.81Q 111.69800000000001-5.04  112.268-4.49Q 112.84800000000001-3.94  113.61800000000001-3.94L 113.61800000000001-3.94L 130.318-3.94Q 131.08800000000002-3.94  131.638-4.49Q 132.18800000000002-5.04  132.18800000000002-5.81ZM 148.63000000000002-27.84L 185.40000000000003-27.84Q 187.85000000000002-27.84  189.53000000000003-26.14Q 191.21000000000004-24.43  191.21000000000004-22.03L 191.21000000000004-22.03L 191.21000000000004 0L 187.32000000000002 0L 187.32000000000002-22.03Q 187.32000000000002-22.8  186.74-23.35Q 186.17000000000002-23.9  185.40000000000003-23.9L 185.40000000000003-23.9L 173.83-23.9Q 173.06000000000003-23.9  172.51000000000002-23.35Q 171.96000000000004-22.8  171.96000000000004-22.03L 171.96000000000004-22.03L 171.96000000000004 0L 167.98000000000002 0L 167.98000000000002-22.03Q 167.98000000000002-22.8  167.42000000000002-23.35Q 166.87-23.9  166.10000000000002-23.9L 166.10000000000002-23.9L 154.49-23.9Q 153.72000000000003-23.9  153.17000000000002-23.35Q 152.62000000000003-22.8  152.62000000000003-22.03L 152.62000000000003-22.03L 152.62000000000003 0L 148.63000000000002 0L 148.63000000000002-27.84ZM 210.24400000000003-27.84L 226.94400000000005-27.84Q 229.39400000000003-27.84  231.09400000000005-26.14Q 232.80400000000003-24.43  232.80400000000003-22.03L 232.80400000000003-22.03L 232.80400000000003-11.95L 208.36400000000003-11.95L 208.36400000000003-5.81Q 208.36400000000003-5.04  208.92400000000004-4.49Q 209.47400000000005-3.94  210.24400000000003-3.94L 210.24400000000003-3.94L 232.80400000000003-3.94L 232.80400000000003 0L 210.24400000000003 0Q 207.84400000000005 0  206.13400000000004-1.7Q 204.43400000000003-3.41  204.43400000000003-5.81L 204.43400000000003-5.81L 204.43400000000003-22.03Q 204.43400000000003-24.43  206.13400000000004-26.14Q 207.84400000000005-27.84  210.24400000000003-27.84L 210.24400000000003-27.84ZM 208.36400000000003-22.03L 208.36400000000003-15.89L 228.81400000000002-15.89L 228.81400000000002-22.03Q 228.81400000000002-22.8  228.26400000000004-23.35Q 227.71400000000003-23.9  226.94400000000005-23.9L 226.94400000000005-23.9L 210.24400000000003-23.9Q 209.47400000000005-23.9  208.92400000000004-23.35Q 208.36400000000003-22.8  208.36400000000003-22.03L 208.36400000000003-22.03ZM 246.79000000000005-27.84L 269.35-27.84Q 271.75000000000006-27.84  273.46000000000004-26.14Q 275.16-24.43  275.16-22.03L 275.16-22.03L 275.16 0L 271.22 0L 271.22-22.03Q 271.22-22.8  270.6700000000001-23.35Q 270.12000000000006-23.9  269.35-23.9L 269.35-23.9L 252.65000000000003-23.9Q 251.88000000000005-23.9  251.30000000000004-23.35Q 250.73000000000005-22.8  250.73000000000005-22.03L 250.73000000000005-22.03L 250.73000000000005 0L 246.79000000000005 0L 246.79000000000005-27.84ZM 305.13800000000003-27.84L 305.13800000000003-23.9L 293.0880000000001-23.9L 293.0880000000001-5.81Q 293.0880000000001-5.04  293.63800000000003-4.49Q 294.18800000000005-3.94  294.9580000000001-3.94L 294.9580000000001-3.94L 305.13800000000003-3.94L 305.13800000000003 0L 294.9580000000001 0Q 292.50800000000004 0  290.8280000000001-1.7Q 289.1480000000001-3.41  289.1480000000001-5.81L 289.1480000000001-5.81L 289.1480000000001-36.96L 293.0880000000001-36.96L 293.0880000000001-27.84L 305.13800000000003-27.84Z" />
</svg>